<svg viewBox="0 0 96 96" xmlns="http://www.w3.org/2000/svg" xmlns:xlink="http://www.w3.org/1999/xlink" id="Icons_BeeWithHive_M" overflow="hidden"><path d="M74.5 56.5C74.5 54.7 73.6 53 72.2 52 74.7 50.3 75.3 46.8 73.6 44.4 72.8 43.3 71.6 42.5 70.2 42.2 72.2 39.9 72 36.5 69.7 34.5 68.8 33.7 67.6 33.2 66.3 33.1 68.2 30.8 67.9 27.3 65.6 25.4 64.6 24.6 63.4 24.1 62.1 24.1L52.6 24.1 52.6 10 50.6 10 50.6 24 41 24C38 24 35.5 26.5 35.5 29.5 35.5 30.8 35.9 32 36.8 33 33.8 33.1 31.4 35.7 31.5 38.7 31.6 40 32 41.2 32.9 42.1 29.9 42.7 28 45.6 28.6 48.6 28.9 50 29.7 51.2 30.8 52 28.3 53.7 27.7 57.2 29.4 59.6 30.2 60.7 31.4 61.5 32.8 61.8 30.8 64.1 31 67.5 33.3 69.5 34.2 70.3 35.4 70.8 36.7 70.9 34.8 73.2 35.1 76.7 37.4 78.6 38.4 79.4 39.6 79.9 40.9 79.9L61.9 79.9C64.9 79.9 67.4 77.4 67.4 74.4 67.4 73.1 67 71.9 66.1 70.9 69.1 70.8 71.5 68.2 71.4 65.2 71.3 63.9 70.9 62.7 70 61.8 72.6 61.3 74.5 59.1 74.5 56.5ZM72.5 56.5C72.5 58.4 70.9 60 69 60L58 60 58 59C58 56.5 56.7 54.3 54.6 53L69 53C70.9 53 72.5 54.6 72.5 56.5ZM46 69 46 61.1C46 61 46 61 46 60.9L46 59C46 56.2 48.2 54 51 54 53.8 54 56 56.2 56 59L56 69 46 69ZM41 26 62 26C63.9 26 65.5 27.6 65.5 29.5 65.5 31.4 63.9 33 62 33L41 33C39.1 33 37.5 31.4 37.5 29.5 37.5 27.6 39 26 41 26ZM37 35 66 35C67.9 35 69.5 36.6 69.5 38.5 69.5 40.4 67.9 42 66 42L37 42C35.1 42 33.5 40.4 33.5 38.5 33.5 36.6 35 35 37 35ZM30.5 47.5C30.5 45.6 32.1 44 34 44L69 44C70.9 44 72.5 45.6 72.5 47.5 72.5 49.4 70.9 51 69 51L34 51C32 51 30.5 49.4 30.5 47.5L30.5 47.5ZM30.5 56.5C30.5 54.6 32.1 53 34 53L47.4 53C45.3 54.3 44 56.5 44 59L44 60 34 60C32 60 30.5 58.4 30.5 56.5ZM33.5 65.5C33.5 63.6 35.1 62 37 62L44 62 44 69 37 69C35 69 33.5 67.4 33.5 65.5ZM62 78 41 78C39.1 78 37.5 76.4 37.5 74.5 37.5 72.6 39 71 41 71L62 71C63.9 71 65.5 72.6 65.5 74.5 65.5 76.4 63.9 78 62 78ZM66 69 58 69 58 62 66 62C67.9 62 69.5 63.6 69.5 65.5 69.5 67.4 67.9 69 66 69Z" fill="#E7E6E6"/><path d="M22 46.1 21.4 45.1C21 44.5 20.5 43.9 20 43.4 19.8 43.2 19.6 43 19.4 42.9 20.3 42.7 20.9 41.7 20.6 40.8 20.6 40.8 22.4 39.9 21.4 38.5 21.3 38.3 21.1 38.2 20.9 38.3 19.8 38.3 17.4 39.9 15.8 41.1 15.6 41.1 15.3 41 15.1 41 15 41 14.9 41 14.8 41 14.8 40.6 14.7 40.3 14.5 40 13.7 39.4 12.6 39.6 12.1 40.4 11.3 41 11.2 42.1 11.7 42.8 11.9 43 12.2 43.1 12.6 43.1 12.6 43.1 12.7 43.1 12.7 43.1 12.7 43.4 12.7 43.8 12.8 44.1 11.3 46.1 9.3 49.1 10.2 49.7 10.4 49.9 10.7 50 11 50 11.9 50 12.4 48.9 12.4 48.9 13.3 49.1 14.3 48.6 14.5 47.7 14.7 47.9 14.8 48.1 15 48.3 15.5 48.8 16.1 49.3 16.8 49.7L17.8 50.2C18.8 50.7 20 50.8 21.1 50.4L23.1 51.4 22.1 49.4C22.7 48.4 22.6 47.2 22 46.1ZM16.5 46.8C16.4 46.7 16.3 46.6 16.2 46.5L16.2 46.5C16.1 46.4 16 46.3 15.8 46.2L15.8 45.5 17.2 44.1 18 44.2C18.1 44.3 18.2 44.4 18.3 44.5 18.4 44.6 18.6 44.7 18.7 44.9 18.7 44.9 18.7 44.9 18.7 44.9 18.1 45.6 17.3 46.3 16.5 46.8ZM20.5 48.7C20 48.8 19.4 48.8 18.9 48.5L18.2 48.1C18.9 47.6 19.4 47.1 20 46.5L20.3 47.1C20.5 47.6 20.6 48.1 20.5 48.7Z" fill="#E7E6E6"/><path d="M84.5 82.3C84.9 81.2 84.8 80 84.3 78.9L83.7 77.9C83.3 77.3 82.8 76.7 82.3 76.2 82.1 76 81.9 75.8 81.7 75.7 82.6 75.5 83.2 74.5 82.9 73.6 82.9 73.6 84.7 72.7 83.7 71.3 83.6 71.1 83.4 71 83.2 71.1 82.1 71.1 79.7 72.7 78.1 73.9 77.9 73.9 77.6 73.8 77.4 73.8 77.3 73.8 77.2 73.8 77.1 73.8 77.1 73.4 77 73.1 76.8 72.8 76 72.2 74.9 72.4 74.4 73.2 73.6 73.8 73.5 74.9 74 75.6 74.2 75.8 74.5 75.9 74.9 75.9 74.9 75.9 75 75.9 75 75.9 75 76.2 75 76.6 75.1 76.9 73.6 78.9 71.6 81.9 72.5 82.5 72.7 82.7 73 82.8 73.3 82.8 74.2 82.8 74.7 81.7 74.7 81.7 75.6 81.9 76.6 81.4 76.8 80.5 76.8 80.5 76.8 80.5 76.8 80.5 77 80.7 77.1 80.9 77.3 81.1 77.8 81.6 78.4 82.1 79.1 82.5L80.1 83.1C81.1 83.6 82.3 83.7 83.4 83.3L85.4 84.3 84.5 82.3ZM78.7 79.6C78.6 79.5 78.5 79.4 78.4 79.3L78.4 79.3C78.3 79.2 78.2 79.1 78 79L78 78.3 79.4 76.9 80.2 77C80.3 77.1 80.4 77.2 80.5 77.3 80.6 77.4 80.8 77.5 80.9 77.7 80.9 77.7 80.9 77.7 80.9 77.7 80.3 78.4 79.5 79.1 78.7 79.6ZM82.7 81.4C82.2 81.5 81.6 81.5 81.1 81.2L80.4 80.8C81.1 80.3 81.6 79.8 82.2 79.2L82.5 79.8C82.7 80.3 82.8 80.9 82.7 81.4Z" fill="#E7E6E6"/><path d="M73.2 27.8C74.3 28.2 75.5 28.1 76.5 27.6L77.5 27C78.1 26.6 78.7 26.1 79.2 25.6 79.4 25.4 79.6 25.2 79.7 25 79.9 25.8 80.6 26.3 81.4 26.3 81.6 26.3 81.7 26.3 81.9 26.2 81.9 26.2 82.4 27.3 83.3 27.3 83.6 27.3 83.9 27.2 84.1 27 85 26.3 83 23.3 81.5 21.4 81.6 21.1 81.6 20.7 81.6 20.4 81.7 20.4 81.7 20.4 81.8 20.4 82.1 20.4 82.4 20.3 82.6 20.1 83.2 19.3 83 18.2 82.2 17.6 81.6 16.8 80.5 16.7 79.8 17.2 79.5 17.5 79.4 17.8 79.5 18.2 79.4 18.2 79.3 18.2 79.2 18.2 79 18.2 78.7 18.2 78.5 18.3 76.8 17.1 74.5 15.5 73.4 15.5 73.2 15.5 73 15.6 72.9 15.7 71.9 17.1 73.7 18 73.7 18 73.5 18.9 74 19.9 74.9 20.1 74.7 20.3 74.5 20.4 74.3 20.6 73.8 21.1 73.3 21.7 72.9 22.4L72.3 23.4C71.8 24.4 71.7 25.6 72.1 26.7L71.1 28.7 73.2 27.8ZM74.6 26C74.4 26 74.2 26 74 25.9 73.9 25.4 73.9 24.8 74.2 24.3L74.6 23.6C75.1 24.3 75.6 24.8 76.2 25.4L75.6 25.7C75.3 25.9 74.9 26 74.6 26ZM76.2 21.7 76.2 21.7C76.4 21.6 76.5 21.4 76.6 21.3L77.3 21.3 78.7 22.7 78.6 23.5C78.5 23.6 78.4 23.7 78.3 23.8 78.2 23.9 78.1 24.1 77.9 24.2L77.9 24.2C77.1 23.6 76.4 22.8 75.9 22 75.9 21.9 76.1 21.8 76.2 21.7Z" fill="#E7E6E6"/></svg>