<svg width="333" height="334" xmlns="http://www.w3.org/2000/svg" xmlns:xlink="http://www.w3.org/1999/xlink" overflow="hidden"><defs><filter id="fx0" x="-10%" y="-10%" width="120%" height="120%" filterUnits="userSpaceOnUse" primitiveUnits="userSpaceOnUse"><feComponentTransfer color-interpolation-filters="sRGB"><feFuncR type="discrete" tableValues="0.0509804 0.0509804"/><feFuncG type="discrete" tableValues="0.0509804 0.0509804"/><feFuncB type="discrete" tableValues="0.0509804 0.0509804"/><feFuncA type="linear" slope="0.8" intercept="0"/></feComponentTransfer><feGaussianBlur stdDeviation="1.77778 1.77778"/></filter><clipPath id="clip1"><rect x="158" y="200" width="333" height="334"/></clipPath><clipPath id="clip2"><rect x="29" y="48" width="277" height="242"/></clipPath><clipPath id="clip3"><rect x="0" y="0" width="335" height="336"/></clipPath><clipPath id="clip4"><rect x="6" y="7" width="323" height="323"/></clipPath><clipPath id="clip5"><rect x="6" y="7" width="323" height="323"/></clipPath><clipPath id="clip6"><rect x="6" y="7" width="323" height="323"/></clipPath><clipPath id="clip7"><rect x="167" y="202" width="315" height="316"/></clipPath><clipPath id="clip8"><rect x="167" y="202" width="315" height="316"/></clipPath><clipPath id="clip9"><rect x="167" y="202" width="315" height="316"/></clipPath></defs><g clip-path="url(#clip1)" transform="translate(-158 -200)"><g clip-path="url(#clip2)" filter="url(#fx0)" transform="translate(157 199)"><g clip-path="url(#clip3)"><g clip-path="url(#clip4)"><g clip-path="url(#clip5)"><g clip-path="url(#clip6)"><path d="M289.505 114.798C287.831 109.777 283.815 105.427 278.795 103.418 273.105 101.076 267.081 100.072 261.056 100.406 241.31 100.406 215.204 108.104 198.47 113.794 198.47 113.459 198.135 113.124 198.135 112.455 202.486 106.431 205.498 99.7369 207.841 93.0431 212.527 80.6597 215.539 73.6312 225.579 73.6312 227.587 73.6312 228.926 72.2925 228.926 70.2844 228.926 68.2762 227.587 66.9375 225.579 66.9375 210.184 66.9375 205.833 78.9863 201.482 90.7003 199.808 96.0553 197.466 101.41 194.453 106.096 192.445 103.418 190.102 101.076 187.425 98.7328 191.107 95.7206 193.449 91.3697 193.784 86.6841 193.784 79.3209 187.76 73.2966 178.723 69.615L186.421 54.2194C187.09 52.5459 186.421 50.5378 185.082 49.8684 183.409 49.1991 181.401 49.8684 180.731 51.2072L172.699 67.6069C165.67 66.2681 158.307 66.2681 151.279 67.6069L143.246 51.2072C142.577 49.5337 140.234 48.8644 138.895 49.8684 137.222 50.5378 136.552 52.8806 137.557 54.2194L145.254 69.615C136.218 73.2966 130.193 79.3209 130.193 86.6841 130.528 91.3697 132.536 95.7206 136.552 98.7328 133.875 100.741 131.532 103.084 129.524 105.761 126.512 100.741 124.169 95.7206 122.496 90.3656 116.806 78.9863 112.455 66.9375 97.0594 66.9375 95.0512 66.9375 93.7125 68.2762 93.7125 70.2844 93.7125 72.2925 95.0512 73.6312 97.0594 73.6312 107.1 73.6312 110.112 80.6597 114.798 93.0431 116.806 100.072 120.153 106.431 124.504 112.455 124.169 112.79 124.169 113.459 123.834 113.794 107.1 108.104 80.9944 100.406 61.2478 100.406 55.2234 100.072 49.1991 101.076 43.5094 103.418 38.4891 105.427 34.8075 109.777 32.7994 114.798 27.4444 131.532 35.8116 154.291 52.5459 168.348 62.9212 177.05 75.9741 182.07 89.3616 182.07L89.6962 182.07C99.4022 182.07 109.108 180.062 117.81 176.046 117.475 178.388 117.475 181.066 117.475 183.743 117.475 186.086 117.475 188.094 117.81 190.437L102.749 190.437 78.3169 214.869C76.9781 216.208 76.9781 218.216 77.9822 219.555 79.3209 220.894 81.3291 220.894 82.6678 219.89 82.6678 219.89 82.6678 219.89 83.0025 219.555L105.427 197.131 118.479 197.131C119.483 203.825 121.157 210.184 123.165 216.543 120.153 231.604 110.782 243.987 95.0512 254.363 93.3778 255.367 93.0431 257.375 94.0472 259.048 94.7166 260.052 95.7206 260.387 96.7247 260.387 97.3941 260.387 98.0634 260.052 98.7328 259.717 111.451 252.02 121.157 240.306 126.847 226.583 136.218 249.008 150.609 267.415 160.315 273.774 170.021 267.415 184.413 249.008 193.784 226.583 199.474 240.306 209.18 252.02 221.898 259.717 223.571 260.722 225.579 260.387 226.583 258.713 227.587 257.04 227.253 255.032 225.579 254.028 225.579 254.028 225.579 254.028 225.579 254.028 209.849 243.653 200.812 230.934 197.466 216.208 199.474 209.849 201.147 203.155 202.151 196.796L215.204 196.796 237.628 219.22C238.967 220.559 240.975 220.224 242.314 218.886 243.653 217.547 243.653 215.539 242.314 214.2L219.555 190.772 204.494 190.772C204.829 188.429 204.829 186.421 204.829 184.078 204.829 181.401 204.829 178.723 204.494 176.38 213.531 180.062 222.902 182.07 232.608 182.405L232.942 182.405C246.33 182.405 259.717 177.719 269.758 168.682 286.492 154.626 294.86 131.532 289.505 114.798ZM161.319 73.6312C176.715 73.6312 186.756 80.6597 186.756 87.0187 186.756 93.3778 176.38 100.406 161.319 100.406 146.258 100.406 135.883 93.3778 135.883 87.0187 135.883 80.6597 145.924 73.6312 161.319 73.6312ZM141.238 102.749C153.956 108.439 168.348 108.439 181.066 102.749 189.098 107.435 193.784 116.137 194.119 125.508 194.119 141.238 179.392 153.956 161.319 153.956 143.246 153.956 128.52 141.238 128.52 125.508 128.52 116.137 133.54 107.769 141.238 102.749ZM189.768 149.94C194.453 157.973 197.466 166.674 197.8 176.046 189.433 181.066 176.046 184.078 161.319 184.078 146.928 184.078 133.206 181.066 124.838 176.046 125.173 166.674 128.185 157.973 132.871 149.94 149.271 164.332 173.368 164.332 189.768 149.94ZM119.149 168.348 118.145 168.682C109.108 172.699 99.7369 175.042 89.6962 175.376L89.3616 175.376C77.3128 175.376 65.9334 171.025 56.8969 163.327 42.5053 151.279 34.8075 130.863 39.4931 117.141 40.4972 113.794 43.1747 111.116 46.5216 109.777L46.5216 109.777 46.5216 109.777C51.2072 107.769 56.2275 107.1 61.2478 107.435 80.6597 107.435 106.431 115.132 122.161 120.487 121.826 122.161 121.826 123.834 121.826 125.508 121.826 132.536 124.169 139.565 128.52 144.92 123.5 151.948 120.487 159.981 119.149 168.348ZM161.319 266.077C154.291 259.383 148.267 251.685 143.246 242.983 155.295 244.657 167.344 244.657 179.392 242.983 174.707 251.35 168.348 259.383 161.319 266.077ZM183.743 235.285C169.017 238.297 153.956 238.297 139.23 235.62 135.548 228.257 132.202 220.894 129.859 213.196 140.234 216.208 151.279 217.882 162.323 217.882 172.699 217.882 183.409 216.543 193.449 213.531 190.437 220.894 187.425 228.257 183.743 235.285ZM195.123 205.498C184.413 209.18 173.033 210.853 161.654 210.853 149.94 211.188 138.226 209.18 127.181 205.163 125.508 198.135 124.504 191.107 124.504 184.078 124.504 183.743 124.504 183.743 124.504 183.409 136.218 188.429 148.601 191.107 161.319 190.772 174.037 191.107 186.421 188.764 198.135 183.409 198.135 183.743 198.135 183.743 198.135 184.078 197.8 191.441 197.131 198.47 195.123 205.498ZM265.407 163.327C256.371 171.025 244.657 175.376 232.942 175.376L232.608 175.376C222.902 175.376 213.196 173.033 204.159 168.682L203.155 168.348C201.817 159.981 198.804 151.948 194.119 144.92 198.47 139.23 200.812 132.536 200.812 125.508 200.812 123.834 200.478 122.161 200.478 120.487 216.208 115.132 241.979 107.435 261.391 107.435 266.411 107.1 271.432 108.104 276.117 109.777L276.117 109.777 276.117 109.777C279.464 111.116 281.807 113.794 282.811 117.141 287.831 130.863 280.133 151.279 265.407 163.327Z" fill="#E7E6E6" transform="matrix(1 0 0 1.00317 6.85001 7)"/></g></g></g></g></g><g clip-path="url(#clip7)"><g clip-path="url(#clip8)"><g clip-path="url(#clip9)"><path d="M283.828 112.547C282.188 107.625 278.25 103.359 273.328 101.391 267.75 99.0938 261.844 98.1094 255.938 98.4375 236.578 98.4375 210.984 105.984 194.578 111.562 194.578 111.234 194.25 110.906 194.25 110.25 198.516 104.344 201.469 97.7812 203.766 91.2188 208.359 79.0781 211.312 72.1875 221.156 72.1875 223.125 72.1875 224.438 70.875 224.438 68.9062 224.438 66.9375 223.125 65.625 221.156 65.625 206.062 65.625 201.797 77.4375 197.531 88.9219 195.891 94.1719 193.594 99.4219 190.641 104.016 188.672 101.391 186.375 99.0938 183.75 96.7969 187.359 93.8438 189.656 89.5781 189.984 84.9844 189.984 77.7656 184.078 71.8594 175.219 68.25L182.766 53.1563C183.422 51.5156 182.766 49.5469 181.453 48.8906 179.812 48.2344 177.844 48.8906 177.188 50.2031L169.312 66.2812C162.422 64.9688 155.203 64.9688 148.312 66.2812L140.438 50.2031C139.781 48.5625 137.484 47.9062 136.172 48.8906 134.531 49.5469 133.875 51.8438 134.859 53.1563L142.406 68.25C133.547 71.8594 127.641 77.7656 127.641 84.9844 127.969 89.5781 129.938 93.8438 133.875 96.7969 131.25 98.7656 128.953 101.062 126.984 103.688 124.031 98.7656 121.734 93.8438 120.094 88.5938 114.516 77.4375 110.25 65.625 95.1562 65.625 93.1875 65.625 91.875 66.9375 91.875 68.9062 91.875 70.875 93.1875 72.1875 95.1562 72.1875 105 72.1875 107.953 79.0781 112.547 91.2188 114.516 98.1094 117.797 104.344 122.062 110.25 121.734 110.578 121.734 111.234 121.406 111.562 105 105.984 79.4062 98.4375 60.0469 98.4375 54.1406 98.1094 48.2344 99.0938 42.6562 101.391 37.7344 103.359 34.125 107.625 32.1562 112.547 26.9062 128.953 35.1094 151.266 51.5156 165.047 61.6875 173.578 74.4844 178.5 87.6094 178.5L87.9375 178.5C97.4531 178.5 106.969 176.531 115.5 172.594 115.172 174.891 115.172 177.516 115.172 180.141 115.172 182.438 115.172 184.406 115.5 186.703L100.734 186.703 76.7812 210.656C75.4688 211.969 75.4688 213.937 76.4531 215.25 77.7656 216.562 79.7344 216.562 81.0469 215.578 81.0469 215.578 81.0469 215.578 81.375 215.25L103.359 193.266 116.156 193.266C117.141 199.828 118.781 206.062 120.75 212.297 117.797 227.062 108.609 239.203 93.1875 249.375 91.5469 250.359 91.2188 252.328 92.2031 253.969 92.8594 254.953 93.8438 255.281 94.8281 255.281 95.4844 255.281 96.1406 254.953 96.7969 254.625 109.266 247.078 118.781 235.594 124.359 222.141 133.547 244.125 147.656 262.172 157.172 268.406 166.688 262.172 180.797 244.125 189.984 222.141 195.562 235.594 205.078 247.078 217.547 254.625 219.188 255.609 221.156 255.281 222.141 253.641 223.125 252 222.797 250.031 221.156 249.047 221.156 249.047 221.156 249.047 221.156 249.047 205.734 238.875 196.875 226.406 193.594 211.969 195.562 205.734 197.203 199.172 198.188 192.938L210.984 192.938 232.969 214.922C234.281 216.234 236.25 215.906 237.562 214.594 238.875 213.281 238.875 211.312 237.562 210L215.25 187.031 200.484 187.031C200.812 184.734 200.812 182.766 200.812 180.469 200.812 177.844 200.812 175.219 200.484 172.922 209.344 176.531 218.531 178.5 228.047 178.828L228.375 178.828C241.5 178.828 254.625 174.234 264.469 165.375 280.875 151.594 289.078 128.953 283.828 112.547ZM158.156 72.1875C173.25 72.1875 183.094 79.0781 183.094 85.3125 183.094 91.5469 172.922 98.4375 158.156 98.4375 143.391 98.4375 133.219 91.5469 133.219 85.3125 133.219 79.0781 143.062 72.1875 158.156 72.1875ZM138.469 100.734C150.938 106.313 165.047 106.313 177.516 100.734 185.391 105.328 189.984 113.859 190.312 123.047 190.312 138.469 175.875 150.938 158.156 150.938 140.438 150.938 126 138.469 126 123.047 126 113.859 130.922 105.656 138.469 100.734ZM186.047 147C190.641 154.875 193.594 163.406 193.922 172.594 185.719 177.516 172.594 180.469 158.156 180.469 144.047 180.469 130.594 177.516 122.391 172.594 122.719 163.406 125.672 154.875 130.266 147 146.344 161.109 169.969 161.109 186.047 147ZM116.812 165.047 115.828 165.375C106.969 169.312 97.7812 171.609 87.9375 171.938L87.6094 171.938C75.7969 171.938 64.6406 167.672 55.7812 160.125 41.6719 148.312 34.125 128.297 38.7188 114.844 39.7031 111.562 42.3281 108.938 45.6094 107.625L45.6094 107.625 45.6094 107.625C50.2031 105.656 55.125 105 60.0469 105.328 79.0781 105.328 104.344 112.875 119.766 118.125 119.438 119.766 119.438 121.406 119.438 123.047 119.438 129.938 121.734 136.828 126 142.078 121.078 148.969 118.125 156.844 116.812 165.047ZM158.156 260.859C151.266 254.297 145.359 246.75 140.438 238.219 152.25 239.859 164.062 239.859 175.875 238.219 171.281 246.422 165.047 254.297 158.156 260.859ZM180.141 230.672C165.703 233.625 150.938 233.625 136.5 231 132.891 223.781 129.609 216.562 127.312 209.016 137.484 211.969 148.312 213.609 159.141 213.609 169.312 213.609 179.812 212.297 189.656 209.344 186.703 216.562 183.75 223.781 180.141 230.672ZM191.297 201.469C180.797 205.078 169.641 206.719 158.484 206.719 147 207.047 135.516 205.078 124.688 201.141 123.047 194.25 122.062 187.359 122.062 180.469 122.062 180.141 122.062 180.141 122.062 179.812 133.547 184.734 145.688 187.359 158.156 187.031 170.625 187.359 182.766 185.062 194.25 179.812 194.25 180.141 194.25 180.141 194.25 180.469 193.922 187.688 193.266 194.578 191.297 201.469ZM260.203 160.125C251.344 167.672 239.859 171.938 228.375 171.938L228.047 171.938C218.531 171.938 209.016 169.641 200.156 165.375L199.172 165.047C197.859 156.844 194.906 148.969 190.312 142.078 194.578 136.5 196.875 129.938 196.875 123.047 196.875 121.406 196.547 119.766 196.547 118.125 211.969 112.875 237.234 105.328 256.266 105.328 261.188 105 266.109 105.984 270.703 107.625L270.703 107.625 270.703 107.625C273.984 108.938 276.281 111.562 277.266 114.844 282.188 128.297 274.641 148.312 260.203 160.125Z" fill="#E7E6E6" transform="matrix(1 0 0 1.00317 167 202)"/></g></g></g></g></svg>