<svg width="106" height="106" xmlns="http://www.w3.org/2000/svg" xmlns:xlink="http://www.w3.org/1999/xlink" overflow="hidden"><defs><clipPath id="clip0"><rect x="519" y="211" width="106" height="106"/></clipPath><clipPath id="clip1"><rect x="520" y="212" width="105" height="105"/></clipPath><clipPath id="clip2"><rect x="520" y="212" width="105" height="105"/></clipPath><clipPath id="clip3"><rect x="520" y="212" width="105" height="105"/></clipPath></defs><g clip-path="url(#clip0)" transform="translate(-519 -211)"><g clip-path="url(#clip1)"><g clip-path="url(#clip2)"><g clip-path="url(#clip3)"><path d="M611.875 238.25 590.619 238.25 584.057 227.312 560.943 227.312 554.381 238.25 533.125 238.25C530.106 238.254 527.66 240.7 527.656 243.719L527.656 296.219C527.66 299.238 530.106 301.684 533.125 301.688L611.875 301.688C614.894 301.684 617.34 299.238 617.344 296.219L617.344 243.719C617.34 240.7 614.894 238.254 611.875 238.25ZM562.182 229.5 582.818 229.5 588.068 238.25 556.932 238.25ZM611.875 240.438C613.687 240.438 615.156 241.907 615.156 243.719L615.156 296.219C615.156 298.031 613.687 299.5 611.875 299.5L533.125 299.5C531.313 299.5 529.844 298.031 529.844 296.219L529.844 243.719C529.844 241.907 531.313 240.438 533.125 240.438Z" fill="#E7E6E6"/><path d="M536.406 256.844 550.625 256.844 550.625 247 536.406 247ZM538.594 249.188 548.438 249.188 548.438 254.656 538.594 254.656Z" fill="#E7E6E6"/><path d="M572.5 252.469C561.627 252.469 552.812 261.283 552.812 272.156 552.812 283.029 561.627 291.844 572.5 291.844 583.373 291.844 592.188 283.029 592.188 272.156 592.175 261.288 583.368 252.481 572.5 252.469ZM572.5 289.656C562.835 289.656 555 281.821 555 272.156 555 262.491 562.835 254.656 572.5 254.656 582.165 254.656 590 262.491 590 272.156 589.989 281.816 582.16 289.645 572.5 289.656Z" fill="#E7E6E6"/><path d="M572.5 259.031C565.251 259.031 559.375 264.908 559.375 272.156 559.375 279.405 565.251 285.281 572.5 285.281 579.749 285.281 585.625 279.405 585.625 272.156 585.617 264.911 579.745 259.039 572.5 259.031ZM572.5 283.094C566.459 283.094 561.562 278.197 561.562 272.156 561.562 266.116 566.459 261.219 572.5 261.219 578.541 261.219 583.438 266.116 583.438 272.156 583.431 278.194 578.538 283.087 572.5 283.094Z" fill="#E7E6E6"/></g></g></g></g></svg>