<svg width="275" height="275" xmlns="http://www.w3.org/2000/svg" xmlns:xlink="http://www.w3.org/1999/xlink" overflow="hidden"><defs><filter id="fx0" x="-10%" y="-10%" width="120%" height="120%" filterUnits="userSpaceOnUse" primitiveUnits="userSpaceOnUse"><feComponentTransfer color-interpolation-filters="sRGB"><feFuncR type="discrete" tableValues="0.0509804 0.0509804"/><feFuncG type="discrete" tableValues="0.0509804 0.0509804"/><feFuncB type="discrete" tableValues="0.0509804 0.0509804"/><feFuncA type="linear" slope="0.8" intercept="0"/></feComponentTransfer><feGaussianBlur stdDeviation="1.77778 1.77778"/></filter><clipPath id="clip1"><rect x="503" y="238" width="275" height="275"/></clipPath><clipPath id="clip2"><rect x="36" y="40" width="206" height="196"/></clipPath><clipPath id="clip3"><rect x="0" y="0" width="278" height="277"/></clipPath><clipPath id="clip4"><rect x="7" y="7" width="264" height="264"/></clipPath><clipPath id="clip5"><rect x="7" y="7" width="264" height="264"/></clipPath><clipPath id="clip6"><rect x="7" y="7" width="264" height="264"/></clipPath><clipPath id="clip7"><rect x="511" y="240" width="258" height="258"/></clipPath><clipPath id="clip8"><rect x="511" y="240" width="258" height="258"/></clipPath><clipPath id="clip9"><rect x="511" y="240" width="258" height="258"/></clipPath></defs><g clip-path="url(#clip1)" transform="translate(-503 -238)"><g clip-path="url(#clip2)" filter="url(#fx0)" transform="translate(501 237)"><g clip-path="url(#clip3)"><g clip-path="url(#clip4)"><g clip-path="url(#clip5)"><g clip-path="url(#clip6)"><path d="M229.818 84.2758C223.979 66.9511 207.778 52.2306 189.165 50.4488 187.898 50.3227 186.646 50.2624 185.418 50.2624 163.849 50.2624 148.137 69.0153 139.022 87.0253 139.022 87.0527 138.989 87.0527 138.978 87.0253 130.176 69.6074 115.625 51.6632 94.6192 50.3392 93.8552 50.2917 93.0923 50.2679 92.3302 50.2679 74.5423 50.2679 58.2428 62.9873 50.5399 78.6289 40.4795 99.106 48.6758 122.132 59.257 140.526 70.6135 159.443 84.3803 176.803 100.211 192.171 112.355 204.597 125.314 216.2 139 226.903L139.768 226.3C151.787 216.81 163.255 206.642 174.115 195.845 189.858 180.846 203.779 164.045 215.591 145.789 226.556 128.136 237.027 105.219 229.818 84.2758ZM170.25 191.958C160.33 201.815 149.899 211.145 139 219.907 126.742 210.095 115.091 199.546 104.112 188.32 89.6348 174.212 76.8827 158.435 66.1239 141.321L99.1176 141.321C100.271 141.267 101.284 140.542 101.708 139.468L113.961 103.678C113.978 103.624 114.003 103.626 114.014 103.678L129.589 184.737C129.823 185.944 130.831 186.849 132.056 186.949 132.136 186.953 132.215 186.953 132.295 186.949 133.432 186.949 134.451 186.247 134.855 185.184L159.052 121.765C159.069 121.724 159.091 121.724 159.104 121.765L170.371 160.573C170.797 162.026 172.321 162.857 173.774 162.431 174.245 162.292 174.671 162.029 175.006 161.67L194.055 141.321 211.873 141.321 211.901 141.373C200.105 159.851 186.12 176.835 170.25 191.958ZM215.075 135.839 192.871 135.839C192.122 135.881 191.412 136.189 190.87 136.708L174.321 154.4C174.302 154.419 174.283 154.413 174.274 154.4L162.054 112.322C161.63 110.868 160.108 110.034 158.654 110.458 157.832 110.698 157.168 111.31 156.862 112.11L133.191 174.15C133.172 174.2 133.147 174.2 133.139 174.15L117.435 92.4201C117.199 91.2008 116.173 90.2921 114.935 90.2052 113.686 90.0829 112.522 90.8526 112.147 92.05L97.1548 135.839 62.9303 135.839C50.8442 114.035 48.3085 95.6027 55.4577 81.0521 62.9111 65.9177 77.7276 55.7504 92.3302 55.7504 92.9799 55.7504 93.6296 55.7723 94.2765 55.8107 113.739 57.0278 126.678 74.8268 134.107 89.5418L138.975 99.1882C138.975 99.2157 139.011 99.2157 139.022 99.1882L143.893 89.5445C149.025 79.3827 163.356 55.7449 185.418 55.7449 186.473 55.7449 187.553 55.7997 188.641 55.9066 204.357 57.4116 219.151 69.7966 224.634 86.0604 229.283 99.5693 226.128 115.935 215.075 135.839Z" stroke="#E7E6E6" stroke-width="2.74125" fill="#E7E6E6"/></g></g></g></g></g><g clip-path="url(#clip7)"><g clip-path="url(#clip8)"><g clip-path="url(#clip9)"><path d="M729.037 315.761C723.312 298.776 707.429 284.344 689.181 282.597 687.94 282.473 686.711 282.414 685.507 282.414 664.362 282.414 648.957 300.799 640.021 318.456 640.021 318.483 639.989 318.483 639.979 318.456 631.349 301.38 617.084 283.787 596.489 282.489 595.74 282.443 594.992 282.419 594.245 282.419 576.806 282.419 560.826 294.889 553.274 310.224 543.411 330.3 551.447 352.875 561.821 370.908 572.954 389.454 586.451 406.474 601.972 421.541 613.878 433.723 626.582 445.098 640 455.591L640.753 455C652.536 445.696 663.78 435.727 674.427 425.142 689.861 410.437 703.509 393.966 715.089 376.068 725.839 358.761 736.105 336.293 729.037 315.761ZM670.638 421.331C660.912 430.995 650.685 440.142 640 448.733 627.982 439.112 616.56 428.771 605.796 417.765 591.603 403.933 579.101 388.466 568.553 371.688L600.9 371.688C602.03 371.634 603.024 370.923 603.439 369.871L615.452 334.783C615.469 334.729 615.493 334.732 615.503 334.783L630.774 414.252C631.003 415.436 631.991 416.322 633.193 416.421 633.271 416.425 633.348 416.425 633.426 416.421 634.541 416.42 635.54 415.732 635.937 414.69L659.659 352.515C659.675 352.475 659.697 352.475 659.71 352.515L670.756 390.562C671.174 391.986 672.668 392.801 674.092 392.383 674.554 392.247 674.972 391.989 675.3 391.637L693.976 371.688 711.445 371.688 711.471 371.739C699.907 389.854 686.197 406.505 670.638 421.331ZM714.583 366.312 692.815 366.312C692.08 366.354 691.385 366.656 690.853 367.164L674.628 384.51C674.61 384.528 674.591 384.523 674.583 384.51L662.602 343.256C662.186 341.832 660.694 341.014 659.269 341.429 658.462 341.665 657.812 342.264 657.512 343.049L634.305 403.873C634.286 403.921 634.262 403.921 634.254 403.873L618.857 323.745C618.627 322.55 617.621 321.659 616.406 321.574 615.182 321.454 614.041 322.208 613.673 323.382L598.975 366.312 565.422 366.312C553.573 344.936 551.087 326.865 558.096 312.6 565.403 297.762 579.929 287.794 594.245 287.794 594.882 287.794 595.519 287.816 596.153 287.854 615.235 289.047 627.92 306.497 635.203 320.923L639.976 330.381C639.976 330.408 640.011 330.408 640.021 330.381L644.797 320.926C649.828 310.963 663.878 287.789 685.507 287.789 686.542 287.789 687.601 287.843 688.668 287.948 704.075 289.423 718.58 301.565 723.955 317.51 728.513 330.754 725.419 346.799 714.583 366.312Z" stroke="#E7E6E6" stroke-width="2.6875" fill="#E7E6E6"/></g></g></g></g></svg>