<svg width="113" height="113" xmlns="http://www.w3.org/2000/svg" xmlns:xlink="http://www.w3.org/1999/xlink" overflow="hidden"><defs><clipPath id="clip0"><rect x="733" y="316" width="113" height="113"/></clipPath><clipPath id="clip1"><rect x="733" y="317" width="112" height="112"/></clipPath><clipPath id="clip2"><rect x="733" y="317" width="112" height="112"/></clipPath><clipPath id="clip3"><rect x="733" y="317" width="112" height="112"/></clipPath></defs><g clip-path="url(#clip0)" transform="translate(-733 -316)"><g clip-path="url(#clip1)"><g clip-path="url(#clip2)"><g clip-path="url(#clip3)"><path d="M839.884 331.496 783.032 325.495 781.251 342.376 738.055 351.3 751.986 418.712 807.97 407.142 805.899 397.124 832.658 399.95ZM753.798 415.954 740.817 353.117 792.229 342.491 805.217 405.329ZM820.406 365.3C820.162 365.004 819.893 364.731 819.6 364.483 822.117 362.857 822.839 359.499 821.212 356.982 819.586 354.466 816.228 353.744 813.711 355.371 811.195 356.997 810.473 360.355 812.1 362.871 812.286 363.16 812.5 363.431 812.738 363.68 810.866 364.635 809.603 366.471 809.38 368.561L808.564 376.296 806.581 376.087 807.767 364.846C808.031 362.32 806.972 359.836 804.967 358.278 808.066 356.567 809.192 352.668 807.481 349.569 805.77 346.47 801.871 345.344 798.771 347.055 797.625 347.688 796.701 348.656 796.121 349.83L794.036 339.741 790.843 340.401 791.333 335.757 829.621 339.799 825.58 378.086 820.94 377.595 821.756 369.861C821.932 368.221 821.446 366.579 820.406 365.3ZM816.322 363.029C814.63 362.852 813.401 361.337 813.577 359.645 813.753 357.952 815.268 356.723 816.961 356.899 818.653 357.076 819.882 358.591 819.706 360.283 819.706 360.285 819.706 360.286 819.706 360.288 819.522 361.977 818.008 363.199 816.319 363.023ZM819.435 369.617 818.618 377.352 810.883 376.535 811.7 368.8C811.911 366.663 813.815 365.102 815.952 365.313 818.09 365.525 819.651 367.429 819.439 369.566 819.437 369.583 819.436 369.6 819.434 369.617ZM798.143 359.595C799.012 359.142 799.997 358.958 800.971 359.065 803.736 359.357 805.741 361.835 805.45 364.6L804.259 375.835 801.438 375.536ZM797.793 352.259C798.012 350.185 799.759 348.608 801.845 348.604 801.991 348.604 802.137 348.612 802.282 348.627 804.525 348.864 806.151 350.874 805.915 353.117 805.678 355.359 803.668 356.985 801.425 356.749 799.183 356.512 797.556 354.502 797.793 352.259 797.793 352.259 797.793 352.259 797.793 352.259ZM805.406 394.726 801.934 377.936 818.374 379.671 819.85 379.827 827.656 380.651 832.188 337.718 789.254 333.186 788.438 340.886 783.641 341.877 785.108 328.06 837.318 333.573 830.581 397.383Z" fill="#E7E6E6"/><path d="M746.328 356.741 755.063 399.017 797.337 390.282 788.601 348.005ZM756.876 396.258 749.085 358.554 786.783 350.762 794.576 388.466Z" fill="#E7E6E6"/><path d="M776.032 361.347C774.678 361.297 771.592 361.718 769.766 365.921 766.431 362.789 763.44 363.628 762.208 364.203 759.324 365.655 757.713 368.807 758.224 371.994 759.741 379.344 772.618 385.613 773.166 385.878 773.64 386.106 774.208 385.988 774.553 385.591 774.951 385.131 784.286 374.274 782.768 366.924 781.976 363.797 779.252 361.542 776.032 361.347ZM773.367 383.368C769.487 381.353 761.502 376.323 760.51 371.522 760.198 369.392 761.277 367.299 763.193 366.317 763.66 366.096 764.17 365.981 764.687 365.98 766.203 365.98 767.798 366.97 769.31 368.876 769.71 369.381 770.444 369.466 770.949 369.066 771.145 368.91 771.285 368.697 771.351 368.456 772.201 365.313 773.817 363.618 775.961 363.68 778.11 363.823 779.928 365.319 780.483 367.4 781.474 372.195 776.136 379.979 773.367 383.368Z" fill="#E7E6E6"/></g></g></g></g></svg>