<svg viewBox="0 0 96 96" xmlns="http://www.w3.org/2000/svg" xmlns:xlink="http://www.w3.org/1999/xlink" id="Icons_GameController_M" overflow="hidden"><g id="Icons"><path d="M71 22C73.3 22 77.565 25.746 81.988 36.305 85.709 45.184 88.112 55.838 88.112 63.446 88.112 68.26 87.225 74 83 74 77.152 74 75.026 71.867 72.084 68.915 68.126 64.943 63.2 60 48 60 32.8 60 27.874 64.943 23.916 68.915 20.973 71.867 18.848 74 13 74 11.3814 74.0261 9.91499 73.0495 9.315 71.546 8.23986 68.9866 7.75191 66.2188 7.887 63.446 7.887 55.838 10.287 45.184 14.011 36.305 18.434 25.746 22.7 22 25 22 29.7 22 31.027 22.969 32.713 24.2 35.164 25.979 37.941 28 48 28 58.059 28 60.836 25.979 63.287 24.2 64.973 22.969 66.3 22 71 22M71 20C59.2 20 65.2 26 48 26 30.8 26 36.8 20 25 20 12.4 20-3.6 76 13 76 28.3 76 22.5 62 48 62 73.5 62 67.7 76 83 76 99.6 76 83.6 20 71 20Z" fill="#E7E6E6"/><circle cx="72" cy="44" r="2" fill="#E7E6E6"/><circle cx="66" cy="50" r="2" fill="#E7E6E6"/><circle cx="60" cy="44" r="2" fill="#E7E6E6"/><circle cx="66" cy="38" r="2" fill="#E7E6E6"/><path d="M37 43 31 43 31 37C31 36.4477 30.5523 36 30 36 29.4477 36 29 36.4477 29 37L29 43 23 43C22.4477 43 22 43.4477 22 44 22 44.5523 22.4477 45 23 45L29 45 29 51C29 51.5523 29.4477 52 30 52 30.5523 52 31 51.5523 31 51L31 45 37 45C37.5523 45 38 44.5523 38 44 38 43.4477 37.5523 43 37 43Z" fill="#E7E6E6"/></g></svg>