<svg viewBox="0 0 96 96" xmlns="http://www.w3.org/2000/svg" xmlns:xlink="http://www.w3.org/1999/xlink" id="Icons_Virgo_M" overflow="hidden"><g id="Icons"><path d="M20.345 30.724 20.345 64.724 22.345 64.724 22.345 30.724C22.345 25.7534 26.3744 21.724 31.345 21.724 36.3156 21.724 40.345 25.7534 40.345 30.724L40.345 64.724 42.345 64.724 42.345 30.724C42.345 25.7534 46.3744 21.724 51.345 21.724 56.3156 21.724 60.345 25.7534 60.345 30.724L60.345 54.224C60.3458 61.5245 63.7441 68.4087 69.539 72.849 66.2893 74.7314 62.6005 75.7231 58.845 75.724L58.845 77.724C63.2698 77.7275 67.6047 76.4742 71.345 74.11 75.0852 76.4743 79.4201 77.7276 83.845 77.724L83.845 75.724C80.0895 75.7232 76.4006 74.7315 73.151 72.849 78.9455 68.4084 82.3438 61.5244 82.345 54.224L82.345 47.724C82.3472 41.6538 77.4281 36.7312 71.358 36.729 67.7671 36.7277 64.402 38.4807 62.345 41.424L62.345 30.724C62.3481 24.6527 57.4289 19.7285 51.3576 19.7254 47.0453 19.7232 43.13 22.2425 41.345 26.168 38.8394 20.6452 32.3311 18.1992 26.8082 20.7048 24.3855 21.8039 22.4441 23.7453 21.345 26.168 19.5593 22.2487 15.6519 19.7308 11.345 19.724L11.345 21.724C16.3133 21.7295 20.3395 25.7557 20.345 30.724ZM71.345 38.724C76.3133 38.7295 80.3395 42.7557 80.345 47.724L80.345 54.224C80.3389 61.1552 76.9872 67.6572 71.345 71.683 65.7024 67.6575 62.3506 61.1553 62.345 54.224L62.345 47.724C62.3505 42.7557 66.3767 38.7295 71.345 38.724Z" fill="#E7E6E6"/></g></svg>